<?xml version="1.0" standalone="no"?>
<!DOCTYPE svg PUBLIC "-//W3C//DTD SVG 20010904//EN"
 "http://www.w3.org/TR/2001/REC-SVG-20010904/DTD/svg10.dtd">
<svg version="1.0" xmlns="http://www.w3.org/2000/svg"
 width="481.000000pt" height="210.000000pt" viewBox="0 0 481.000000 210.000000"
 preserveAspectRatio="xMidYMid meet">

<g transform="translate(0.000000,210.000000) scale(0.100000,-0.100000)"
fill="#000000" stroke="none">
<path d="M1279 1752 c-40 -48 -105 -125 -144 -172 -94 -113 -507 -616 -570
-695 -68 -84 -205 -253 -283 -348 -35 -43 -62 -81 -59 -83 8 -8 791 -32 800
-25 4 4 16 41 28 82 36 131 203 443 244 456 6 2 20 -16 32 -40 30 -61 69 -105
117 -129 22 -11 64 -37 91 -58 135 -101 182 -96 296 28 35 38 77 77 92 87 15
10 32 26 38 36 8 16 6 19 -14 19 -14 0 -60 -30 -118 -76 -51 -41 -106 -82
-122 -90 -31 -17 -43 -13 -122 47 -27 20 -72 48 -100 62 -68 34 -96 67 -102
119 -4 37 0 50 31 97 46 68 178 231 187 231 3 0 12 -7 19 -14 14 -18 45 -8 96
31 l35 26 32 -39 c17 -21 48 -55 67 -74 246 -237 297 -296 407 -471 72 -116
179 -329 214 -429 12 -36 25 -68 29 -73 3 -4 33 30 65 75 32 46 93 130 134
188 57 80 617 773 686 849 20 21 606 -4 655 -29 123 -63 134 -231 20 -306 -49
-33 -44 -33 -421 -20 l-266 8 -123 -153 c-67 -85 -131 -161 -141 -171 -41 -36
-75 -33 756 -65 205 -8 308 18 427 107 368 276 263 843 -179 973 -29 9 -114
18 -190 22 -76 3 -223 10 -328 15 -104 5 -236 12 -293 14 l-102 5 -88 -98
c-332 -369 -528 -581 -537 -581 -5 1 -26 24 -46 53 -137 202 -466 660 -476
664 -7 3 -89 -65 -182 -151 -93 -86 -172 -156 -176 -156 -8 0 -286 286 -298
306 -4 8 -16 18 -26 24 -16 8 -30 -3 -92 -78z"/>
<path d="M1765 1831 c-6 -11 9 -23 19 -14 9 9 7 23 -3 23 -6 0 -12 -4 -16 -9z"/>
<path d="M1725 1113 c-22 -23 -26 -34 -21 -63 16 -99 156 -89 156 11 0 76 -80
106 -135 52z m95 -13 c22 -22 26 -60 8 -78 -16 -16 -73 -15 -86 1 -22 28 -23
56 -3 76 26 26 55 27 81 1z"/>
<path d="M1757 1094 c-10 -11 -9 -42 3 -49 20 -12 51 6 48 28 -3 22 -36 35
-51 21z"/>
</g>
</svg>
